<svg width="370" height="108" viewBox="0 0 370 108" fill="none" xmlns="http://www.w3.org/2000/svg">
<g clip-path="url(#clip0_9_21)">
<path d="M28.8317 81.7297L31.5713 84.4693L49.5746 66.466C54.8582 71.1625 61.7073 73.7064 68.752 73.7064C76.5796 73.7064 83.82 70.5754 89.495 65.0962C94.9742 59.6169 98.1053 52.1807 98.1053 44.3532C98.1053 36.5257 94.9742 29.2852 89.495 23.6103C84.0157 18.131 76.5796 15 68.752 15C60.9245 15 53.6841 18.131 48.0091 23.6103C37.0506 34.5688 36.6592 51.9851 46.6393 63.5307L28.8317 81.7297ZM51.1401 26.7413C55.8366 22.0448 62.2943 19.3051 68.9477 19.3051C75.6011 19.3051 82.0588 21.8491 86.7554 26.7413C91.4519 31.6335 94.1915 37.8955 94.1915 44.5489C94.1915 51.2023 91.6476 57.66 86.7554 62.3565C82.0588 67.053 75.6011 69.7927 68.9477 69.7927C62.2943 69.7927 55.8366 67.2487 51.1401 62.3565C41.16 52.5721 41.16 36.5257 51.1401 26.7413Z" fill="white"/>
<path d="M6 96.9792L16.3778 107.357L35.473 88.2618L25.0952 77.884L6 96.9792Z" fill="white"/>
<path d="M14.7421 38.6783H17.4817V22.0448H11.4154V24.5887H14.7421V38.6783Z" fill="white"/>
<path d="M28.0489 38.8739C30.3972 38.8739 31.9627 38.0912 33.1368 36.5257C34.3109 34.9602 34.898 32.8076 34.898 30.2637C34.898 27.7197 34.3109 25.5671 33.1368 24.0016C31.9627 22.4361 30.2015 21.6534 28.0489 21.6534C25.7006 21.6534 24.1351 22.4361 22.961 24.0016C21.7869 25.5671 21.1998 27.7197 21.1998 30.2637C21.1998 32.8076 21.7869 34.9602 22.961 36.5257C24.1351 38.0912 25.7006 38.8739 28.0489 38.8739ZM24.9179 25.7628C25.505 24.5887 26.6791 24.0016 28.0489 24.0016C29.4187 24.0016 30.3972 24.5887 31.1799 25.7628C31.767 26.937 32.1584 28.5025 32.1584 30.2637C32.1584 32.2205 31.767 33.5904 31.1799 34.7645C30.5929 35.9386 29.4187 36.5257 28.0489 36.5257C26.6791 36.5257 25.7006 35.9386 24.9179 34.7645C24.3308 33.5904 23.9395 32.2205 23.9395 30.2637C23.9395 28.3068 24.3308 26.937 24.9179 25.7628Z" fill="white"/>
<path d="M14.3507 68.4229C16.699 68.4229 18.2645 67.6401 19.4386 66.0746C20.6128 64.5091 21.1998 62.3566 21.1998 59.8126C21.1998 57.2687 20.6128 55.1161 19.4386 53.5506C18.2645 51.9851 16.5033 51.2023 14.3507 51.2023C12.0025 51.2023 10.437 51.9851 9.26285 53.5506C8.08872 55.1161 7.50165 57.2687 7.50165 59.8126C7.50165 62.3566 8.08872 64.5091 9.26285 66.0746C10.437 67.4444 12.0025 68.4229 14.3507 68.4229ZM11.2197 55.1161C11.8068 53.942 12.9809 53.3549 14.3507 53.3549C15.7206 53.3549 16.699 53.942 17.4817 55.1161C18.0688 56.2902 18.4602 57.8557 18.4602 59.6169C18.4602 61.5738 18.0688 62.9436 17.4817 64.1177C16.8947 65.2919 15.7206 65.8789 14.3507 65.8789C12.9809 65.8789 12.0025 65.2919 11.2197 64.1177C10.6327 62.9436 10.2413 61.3781 10.2413 59.6169C10.2413 57.8557 10.6327 56.2902 11.2197 55.1161Z" fill="white"/>
<path d="M29.4187 68.2272V51.398H23.3524V53.942H26.6791V68.2272H29.4187Z" fill="white"/>
<path d="M49.966 83.6865C47.6177 83.6865 46.0522 84.4693 44.8781 86.0348C43.704 87.6003 43.1169 89.7529 43.1169 92.2968C43.1169 94.8407 43.704 96.9933 44.8781 98.5588C46.0522 100.124 47.8134 100.907 49.966 100.907C52.3142 100.907 53.8797 100.124 55.0539 98.5588C56.228 96.9933 56.8151 94.8407 56.8151 92.2968C56.8151 89.7529 56.228 87.6003 55.0539 86.0348C53.8797 84.4693 52.1185 83.6865 49.966 83.6865ZM52.9013 96.9933C52.3142 98.1674 51.1401 98.7545 49.7703 98.7545C48.4005 98.7545 47.422 98.1674 46.6393 96.9933C46.0522 95.8192 45.6608 94.2537 45.6608 92.4925C45.6608 90.5356 46.0522 89.1658 46.6393 87.9917C47.2263 86.8175 48.4005 86.2305 49.7703 86.2305C51.1401 86.2305 52.1185 86.8175 52.9013 87.9917C53.4884 89.1658 53.8797 90.7313 53.8797 92.4925C53.8797 94.2537 53.6841 95.8192 52.9013 96.9933Z" fill="white"/>
<path d="M58.7719 86.6218H62.2943V100.907H65.034V84.0779H58.7719V86.6218Z" fill="white"/>
<path d="M75.6011 83.6865C73.2529 83.6865 71.6874 84.4693 70.5132 86.0348C69.3391 87.6003 68.752 89.7529 68.752 92.2968C68.752 94.8407 69.3391 96.9933 70.5132 98.5588C71.6874 100.124 73.4486 100.907 75.6011 100.907C77.9494 100.907 79.5149 100.124 80.689 98.5588C81.8631 96.9933 82.4502 94.8407 82.4502 92.2968C82.4502 89.7529 81.8631 87.6003 80.689 86.0348C79.5149 84.4693 77.7537 83.6865 75.6011 83.6865ZM78.7321 96.9933C78.1451 98.1674 76.9709 98.7545 75.6011 98.7545C74.2313 98.7545 73.2529 98.1674 72.4701 96.9933C71.8831 95.8192 71.4917 94.2537 71.4917 92.4925C71.4917 90.5356 71.8831 89.1658 72.4701 87.9917C73.0572 86.8175 74.2313 86.2305 75.6011 86.2305C76.9709 86.2305 77.9494 86.8175 78.7321 87.9917C79.3192 89.1658 79.7106 90.7313 79.7106 92.4925C79.7106 94.2537 79.3192 95.8192 78.7321 96.9933Z" fill="white"/>
<path d="M84.6028 86.6218H87.9295V100.907H90.6691V84.0779H84.6028V86.6218Z" fill="white"/>
<path d="M54.0754 55.7031H57.4021V34.9602H49.7703V38.0912H54.0754V55.7031Z" fill="white"/>
<path d="M70.5132 55.8988C73.2529 55.8988 75.4054 54.9204 76.7753 52.9635C78.1451 51.0066 78.9278 48.4627 78.9278 45.136C78.9278 41.8093 78.1451 39.2653 76.7753 37.3084C75.4054 35.3515 73.2529 34.3731 70.5132 34.3731C67.7736 34.3731 65.621 35.3515 64.2512 37.3084C62.8814 39.2653 62.0986 41.8093 62.0986 45.136C62.0986 48.4627 62.8814 51.0066 64.2512 52.9635C65.4253 54.9204 67.5779 55.8988 70.5132 55.8988ZM66.5995 39.6567C67.3822 38.2869 68.752 37.5041 70.5132 37.5041C72.2744 37.5041 73.4486 38.2869 74.427 39.6567C75.2098 41.0265 75.6011 42.9834 75.6011 45.3316C75.6011 47.6799 75.2098 49.6368 74.427 51.0066C73.6442 52.3764 72.2744 53.1592 70.5132 53.1592C68.752 53.1592 67.5779 52.3764 66.5995 51.0066C65.8167 49.6368 65.4253 47.6799 65.4253 45.3316C65.4253 42.9834 65.8167 41.0265 66.5995 39.6567Z" fill="white"/>
<path d="M85.7769 55.7031H89.1036V34.9602H81.4718V38.0912H85.7769V55.7031Z" fill="white"/>
<path d="M143.859 32.5902C148.176 32.5902 152.22 33.3959 155.99 35.0076C159.76 36.6193 162.854 38.9792 165.271 42.0874L158.364 47.3541C154.623 42.6918 149.702 40.3606 143.6 40.3606C136.981 40.3606 131.527 42.7205 127.239 47.4404C122.95 52.1603 120.807 58.0886 120.807 65.2262C120.807 72.1334 122.922 77.8317 127.153 82.3214C131.383 86.811 136.866 89.0558 143.6 89.0558C150.335 89.0558 155.659 86.3217 159.573 80.8536L166.566 86.1203C164.149 89.3436 160.925 91.9339 156.896 93.8908C152.867 95.8477 148.378 96.8263 143.427 96.8263C137.556 96.8263 132.232 95.4017 127.455 92.5526C122.678 89.7034 118.907 85.7892 116.144 80.8104C113.381 75.8317 112 70.6078 112 65.1399C112 55.7005 114.964 47.9153 120.893 41.7852C126.822 35.6551 134.477 32.5902 143.859 32.5902ZM179.085 33.9716C180.64 33.9716 181.978 34.5329 183.1 35.6553C184.223 36.7777 184.784 38.116 184.784 39.6701C184.784 41.2817 184.208 42.6344 183.057 43.7281C181.906 44.8217 180.582 45.3685 179.086 45.3685C177.474 45.3685 176.121 44.8217 175.028 43.7281C173.934 42.6344 173.387 41.2817 173.387 39.6701C173.387 38.0584 173.963 36.7057 175.114 35.612C176.265 34.5184 177.589 33.9716 179.085 33.9716ZM182.971 54.3476V95.2723H175.2V54.3476H182.971ZM215.521 53.3115C216.96 53.3115 218.111 53.4842 218.974 53.8296L218.629 62.2045C217.132 61.8015 215.837 61.6001 214.743 61.6001C207.088 61.6001 203.203 65.8595 203.088 74.3783V95.2723H195.317V54.3476H203.088V60.6504H203.26C204.296 58.4631 205.966 56.6932 208.268 55.3405C210.57 53.9878 212.988 53.3115 215.521 53.3115ZM245.135 53.3979C251.639 53.3979 256.877 55.5564 260.849 59.8733L254.977 65.2263C252.157 62.1757 248.761 60.6504 244.789 60.6504C240.991 60.6504 237.911 62.003 235.551 64.7083C233.191 67.4136 232.011 70.8958 232.011 75.1553C232.011 79.1845 233.249 82.4941 235.724 85.0843C238.199 87.6745 241.365 88.9983 245.221 89.0559C249.308 89.0559 252.617 87.5306 255.15 84.4799L260.676 90.0056C256.992 94.2075 251.811 96.3084 245.135 96.3084C238.861 96.3084 233.753 94.3513 229.81 90.4373C225.867 86.5233 223.838 81.3717 223.723 74.9826C223.78 68.4783 225.809 63.269 229.81 59.3553C233.81 55.4415 238.918 53.4553 245.135 53.3979ZM275.094 54.3476V78.8679C275.094 82.0912 275.943 84.5952 277.641 86.3794C279.34 88.1636 281.599 89.0559 284.419 89.0559C288.045 89.0559 290.851 87.8616 292.837 85.4728C294.823 83.0841 295.816 79.8465 295.816 75.7597V54.3476H303.586V95.2723H295.816V88.9696H295.643C294.55 91.272 292.765 93.0707 290.29 94.3658C287.815 95.6608 285.11 96.3084 282.174 96.3084C277.627 96.3084 274.015 94.8982 271.339 92.0778C268.662 89.2573 267.324 85.5734 267.324 81.0264V54.3476H275.094ZM323.703 30V95.2723H315.933V30H323.703ZM352.454 53.3115C357.635 53.3115 361.736 54.4913 364.758 56.8512C367.779 59.2111 369.377 62.4921 369.549 66.6938V88.624C369.549 90.6961 369.664 92.9122 369.895 95.2721H362.988C362.815 93.4302 362.729 91.3581 362.729 89.0556H362.556C360.772 91.7034 358.714 93.5742 356.383 94.6677C354.052 95.7612 351.332 96.3081 348.224 96.3081C344.022 96.3081 340.612 95.1857 337.992 92.9409C335.373 90.6961 334.064 87.7316 334.064 84.048C334.064 79.3857 336.021 75.86 339.935 73.4714C343.849 71.0829 349.375 69.8884 356.512 69.8884H362.297V68.4206C362.297 65.6578 361.39 63.485 359.577 61.902C357.764 60.319 355.39 59.5277 352.454 59.5277C350.267 59.5277 348.353 59.8586 346.713 60.5206C345.072 61.1826 343.13 62.4057 340.885 64.1901L336.223 59.3551C340.655 55.4411 346.065 53.4268 352.454 53.3115ZM341.835 83.4439C341.835 87.8761 344.77 90.092 350.641 90.092C354.152 90.092 356.958 89.0415 359.059 86.9406C361.16 84.8397 362.239 81.8034 362.297 77.8318V75.587H357.894C352.829 75.587 348.886 76.2346 346.065 77.5296C343.244 78.8247 341.835 80.7961 341.835 83.4439Z" fill="white"/>
</g>
<defs>
<clipPath id="clip0_9_21">
<rect width="369.895" height="107.357" fill="white"/>
</clipPath>
</defs>
</svg>
